<?xml version="1.0" standalone="no"?>
<!DOCTYPE svg PUBLIC "-//W3C//DTD SVG 20010904//EN"
 "http://www.w3.org/TR/2001/REC-SVG-20010904/DTD/svg10.dtd">
<svg version="1.0" xmlns="http://www.w3.org/2000/svg"
 width="288.000000pt" height="288.000000pt" viewBox="0 0 288.000000 288.000000"
 preserveAspectRatio="xMidYMid meet">
<metadata>
Created by potrace 1.14, written by Peter Selinger 2001-2017
</metadata>
<g transform="translate(0.000000,288.000000) scale(0.100000,-0.100000)"
fill="#000000" stroke="none">
<path d="M1780 2860 c0 -5 -7 -10 -15 -10 -8 0 -15 -4 -15 -10 0 -5 -7 -10
-15 -10 -8 0 -15 -4 -15 -10 0 -5 7 -10 15 -10 21 0 19 -20 -2 -20 -17 -1 -17
-1 -1 -14 13 -10 16 -23 12 -62 -2 -27 -8 -50 -13 -52 -5 -2 -7 -14 -5 -28 2
-13 0 -34 -6 -45 -10 -18 -10 -19 9 -7 12 7 21 19 21 26 0 7 4 11 9 8 5 -4 8
-14 7 -23 -3 -17 -24 -25 -61 -24 -11 1 -31 -2 -44 -5 -20 -4 -22 -7 -10 -15
10 -6 11 -9 1 -9 -7 0 -19 14 -26 31 l-13 32 -7 -49 c-9 -62 -33 -114 -52
-114 -8 0 -22 -16 -30 -35 -13 -32 -13 -36 6 -55 11 -11 20 -30 20 -43 0 -24
-91 -330 -137 -462 -27 -76 -30 -80 -60 -83 -40 -4 -48 -19 -57 -99 -6 -54 -5
-62 11 -66 10 -3 1 -5 -20 -6 l-38 -1 40 -48 c27 -31 41 -58 41 -76 0 -24 3
-27 21 -23 12 3 30 0 40 -6 16 -10 22 -9 29 3 9 13 11 13 20 0 8 -13 13 -13
31 -2 19 12 21 12 16 -1 -3 -9 1 -21 9 -27 8 -7 14 -25 14 -40 0 -32 -17 -42
-115 -65 -38 -10 -77 -19 -85 -22 -12 -3 -13 -2 -2 8 19 20 14 41 -20 78 -22
24 -24 28 -7 13 15 -13 30 -19 33 -14 3 5 -1 15 -10 22 -8 7 -13 19 -10 27 4
9 -4 16 -24 20 -16 3 -27 9 -24 14 3 5 1 9 -4 9 -19 0 -21 -14 -5 -34 18 -21
18 -21 -2 -5 -13 11 -50 19 -102 23 l-81 6 -21 -29 c-12 -16 -24 -43 -27 -60
-7 -34 -14 -37 -32 -19 -18 18 -15 29 23 88 19 30 35 62 35 72 0 10 6 18 14
18 8 0 24 15 36 34 11 19 26 37 33 40 15 6 -48 6 -86 -1 -21 -4 -25 -8 -18
-17 6 -7 8 -15 5 -18 -3 -3 -5 -25 -6 -47 -1 -56 -7 -47 -13 19 -6 61 -12 73
-28 64 -7 -4 -8 -3 -4 2 5 5 16 9 25 9 14 0 18 13 20 73 l3 72 -44 0 c-48 0
-57 10 -48 48 10 39 0 112 -15 112 -17 0 -32 -56 -39 -150 -14 -195 -28 -297
-53 -372 -25 -74 -30 -83 -70 -104 -23 -13 -51 -24 -62 -24 -21 0 -62 34 -53
44 8 7 -93 20 -149 19 -82 -1 -90 -2 -82 -14 5 -9 -4 -10 -32 -4 -21 5 -49 8
-61 8 -13 -1 -23 3 -23 8 0 5 -11 4 -24 -2 -17 -8 -29 -8 -44 0 -14 8 -29 8
-47 1 -14 -5 -30 -10 -34 -10 -16 0 -52 43 -47 56 8 20 -51 19 -70 -1 -9 -8
-12 -15 -7 -16 42 -4 54 -7 60 -12 3 -4 -5 -7 -18 -7 -49 0 -49 -3 -49 -351
l0 -328 53 -5 c76 -9 478 -23 505 -18 20 4 22 10 22 75 0 38 5 87 12 109 9 32
9 44 -1 60 -11 18 -11 20 3 15 10 -4 16 -1 16 7 0 8 -6 17 -12 19 -9 4 -8 6 3
6 9 1 31 37 58 99 24 53 50 106 57 117 13 18 14 15 14 -27 0 -25 3 -54 6 -63
10 -24 60 -46 89 -39 15 4 25 2 25 -5 0 -22 31 -10 48 19 18 31 37 44 52 35
12 -7 1 -35 -14 -35 -6 0 -33 -22 -59 -50 -40 -41 -47 -55 -45 -83 2 -34 2
-34 36 -25 22 6 38 6 44 0 7 -7 0 -12 -19 -16 -30 -7 -92 -63 -112 -103 -24
-47 -7 -107 43 -150 28 -24 29 -34 26 -173 0 -36 -5 -78 -10 -95 -5 -16 -11
-43 -14 -59 -8 -45 -16 -43 -17 5 -1 42 -2 40 -15 -25 -8 -38 -18 -74 -23 -80
-16 -19 -27 -101 -13 -92 7 4 12 20 12 36 0 43 10 60 35 60 22 0 24 -4 27 -76
2 -41 -1 -79 -5 -83 -4 -4 21 -9 57 -10 l64 -2 7 68 c8 87 10 93 34 93 24 0
31 -19 31 -80 l0 -49 113 1 c159 2 427 -13 427 -23 0 -5 5 -9 10 -9 6 0 10 15
10 34 0 60 11 96 30 96 25 0 41 -23 36 -51 -2 -13 1 -30 6 -36 6 -7 8 -20 4
-28 -4 -12 3 -15 33 -15 l38 0 7 71 c4 47 3 76 -5 85 -16 20 -18 226 -1 231
18 7 15 31 -7 62 -19 26 -32 123 -19 137 4 3 15 1 26 -5 25 -13 62 -14 62 -2
0 12 -27 21 -44 15 -8 -3 -24 -1 -35 6 -17 8 -20 19 -19 53 1 23 3 36 5 30 7
-20 33 -2 33 22 0 52 -22 72 -35 32 -7 -21 -8 -21 -12 7 -6 36 10 54 32 36 8
-7 15 -19 15 -27 0 -8 5 -11 11 -8 15 10 49 -24 49 -49 0 -17 2 -18 10 -6 7
12 13 11 35 -10 33 -31 18 -47 -24 -26 -18 10 -31 24 -31 36 0 27 -20 36 -27
11 -3 -11 -16 -27 -30 -36 -31 -21 -26 -48 10 -49 15 -1 27 2 27 6 0 14 39 8
52 -7 7 -9 19 -22 25 -30 10 -11 10 -14 0 -18 -7 -3 -5 -6 5 -6 17 -1 61 38
55 49 -2 3 -10 21 -19 40 -11 23 -46 57 -102 98 -47 35 -84 68 -80 73 8 14 46
11 58 -5 6 -8 18 -16 26 -18 8 -2 22 -11 31 -20 9 -10 28 -22 44 -28 26 -10
27 -9 21 12 -16 55 -16 61 0 47 20 -16 30 -4 14 17 -11 12 -11 17 -1 23 9 6 7
10 -8 14 -12 3 -21 12 -21 21 0 13 4 15 19 6 14 -7 20 -7 23 1 4 11 98 -25 98
-37 0 -4 -7 -4 -15 -1 -8 4 -17 2 -20 -3 -4 -6 -15 -10 -26 -10 -13 0 -19 -7
-19 -21 0 -16 5 -20 19 -16 33 8 51 -11 52 -56 1 -23 4 -33 6 -23 4 15 7 16
15 5 7 -11 11 -11 15 -1 6 15 23 6 23 -14 0 -8 -9 -14 -20 -14 -11 0 -20 -5
-20 -11 0 -5 -4 -8 -9 -5 -10 7 -21 -17 -21 -46 0 -16 -6 -19 -32 -16 -24 2
-33 -1 -33 -12 0 -9 9 -15 23 -15 12 0 27 -7 32 -15 9 -13 12 -13 21 3 8 13
14 15 23 7 10 -7 17 -6 26 5 9 10 9 15 1 15 -19 0 -12 28 9 35 12 4 23 18 27
35 7 37 33 29 33 -11 0 -16 5 -29 10 -29 6 0 10 10 10 21 0 16 5 20 20 16 14
-4 20 0 21 11 0 11 2 12 6 4 2 -6 9 -9 15 -6 6 4 8 -2 6 -12 -2 -11 -9 -20
-16 -20 -23 -3 -23 -4 -5 -23 28 -29 64 -44 75 -33 7 7 0 15 -20 26 -23 12
-29 21 -25 36 3 11 13 20 22 20 9 0 -10 15 -42 32 -56 31 -68 49 -34 54 9 1
15 -2 12 -6 -8 -12 94 -70 112 -63 14 6 43 -13 43 -28 0 -5 -9 -9 -20 -9 -11
0 -20 5 -20 10 0 6 -6 10 -14 10 -20 0 -17 -48 3 -49 9 0 23 -1 31 -2 8 -1 24
2 34 7 14 5 17 4 12 -4 -5 -8 3 -12 23 -12 25 0 31 -4 31 -21 0 -11 -4 -28
-10 -38 -8 -17 -2 -19 73 -24 46 -3 86 -2 92 4 5 5 -3 9 -23 9 -18 0 -32 5
-32 10 0 6 -9 10 -20 10 -11 0 -20 -5 -20 -11 0 -17 -43 -6 -46 12 -2 20 6 33
30 46 18 10 16 11 -12 18 -37 8 -53 25 -23 25 31 0 34 18 5 36 -19 13 -28 14
-33 5 -6 -9 -14 -9 -34 0 -20 9 -23 14 -14 24 7 7 16 10 21 7 5 -3 6 0 3 5 -9
14 -47 23 -47 11 0 -5 -15 -9 -32 -7 -18 1 -41 -2 -51 -6 -12 -5 -24 -2 -34 8
-15 15 -14 15 8 10 21 -6 22 -4 11 9 -7 9 -27 19 -45 22 l-32 7 24 13 c23 13
23 13 3 18 -12 3 -22 2 -24 -2 -2 -4 -14 -11 -27 -15 -16 -5 -21 -4 -17 4 4 6
14 11 22 11 8 0 14 5 14 11 0 5 -4 8 -9 5 -5 -3 -22 7 -38 23 l-30 29 35 -4
c20 -1 42 -10 48 -19 7 -9 16 -17 21 -17 17 -1 51 -17 58 -27 3 -6 17 -11 31
-11 13 0 24 -5 24 -11 0 -6 7 -9 15 -6 8 4 17 2 20 -3 10 -16 43 -11 54 8 9
15 10 15 11 -4 0 -12 7 -25 16 -28 12 -4 14 -1 9 14 -5 14 -2 20 10 20 13 0
15 -6 10 -30 -5 -21 -3 -30 7 -31 46 -2 72 -10 84 -26 14 -19 19 -10 14 31 -1
12 2 16 11 10 9 -5 10 -2 6 9 -3 10 -2 17 3 17 6 0 10 -7 10 -16 0 -15 67 -50
78 -40 7 7 32 -13 32 -26 0 -6 -7 -8 -15 -4 -23 8 -19 -26 5 -47 11 -9 20 -12
20 -7 0 25 16 6 28 -31 15 -49 9 -59 -41 -62 -61 -4 -54 -17 10 -17 33 0 75
-3 93 -7 29 -5 32 -4 27 12 -4 10 -2 24 5 32 15 19 -7 35 -40 30 -12 -3 -25 0
-28 4 -3 5 14 9 37 9 41 0 41 1 36 29 -6 29 -5 30 36 33 l42 3 -59 11 c-40 8
-69 8 -88 2 -39 -14 -60 -3 -23 12 l30 12 -25 10 c-13 5 -28 14 -32 21 -4 6
-13 12 -20 12 -25 2 -68 17 -68 25 0 4 -7 7 -16 6 -25 -2 -28 21 -5 41 24 20
27 39 9 46 -10 3 -10 8 -2 16 19 21 39 -14 25 -45 -9 -20 -8 -28 3 -40 10 -9
17 -11 21 -4 5 8 15 6 30 -4 22 -14 25 -14 40 0 9 9 19 14 22 11 3 -4 14 -2
24 4 11 5 19 6 19 1 0 -5 16 -8 36 -7 19 0 38 -3 40 -7 7 -10 44 9 44 23 0 6
-5 7 -10 4 -14 -9 -52 4 -45 16 4 5 17 9 31 9 l24 0 0 180 c0 174 -1 180 -20
180 -12 0 -24 -10 -29 -24 -14 -35 -81 -53 -81 -21 0 13 -11 19 -31 17 -4 -1
-20 3 -37 7 -17 5 -33 6 -37 3 -12 -13 -80 0 -101 19 -11 10 -30 19 -42 19
-12 0 -22 4 -22 9 0 4 -22 8 -50 8 -27 -1 -51 1 -52 4 -2 2 -16 30 -33 62 -16
31 -36 57 -45 58 -9 0 -10 3 -3 5 8 4 -2 33 -29 90 -39 80 -40 87 -29 125 13
42 9 59 -15 59 -22 0 -17 29 9 51 l22 18 -47 1 c-43 0 -47 2 -57 33 -20 61
-111 422 -116 457 -2 19 -8 55 -13 78 -9 39 -8 46 15 73 27 32 25 59 -5 59
-26 0 -59 70 -53 115 2 19 -3 21 -56 18 -40 -2 -64 1 -77 12 -17 13 -18 16 -3
38 12 19 13 27 4 36 -9 10 -8 15 5 25 11 8 14 17 7 27 -5 8 -9 24 -9 37 0 12
-6 22 -12 22 -8 0 -9 3 -3 8 6 4 15 16 21 28 10 16 8 25 -6 44 -14 18 -15 27
-7 32 7 4 -5 8 -25 8 -21 0 -38 -4 -38 -10z m30 -20 c0 -5 -4 -10 -10 -10 -5
0 -10 5 -10 10 0 6 5 10 10 10 6 0 10 -4 10 -10z m-5 -108 c3 -8 1 -20 -5 -26
-7 -7 -10 -5 -10 7 0 19 -16 23 -22 5 -3 -7 -7 -6 -11 5 -3 9 -2 17 4 17 6 0
8 4 5 9 -4 5 3 7 13 4 11 -3 22 -12 26 -21z m35 -18 c0 -8 -5 -12 -10 -9 -6 4
-8 11 -5 16 9 14 15 11 15 -7z m0 -561 c0 -26 31 -344 36 -371 l6 -33 -83 2
c-46 1 -108 4 -137 7 l-54 5 5 66 c4 52 43 251 63 319 4 13 164 18 164 5z
m-300 -23 c0 -5 -4 -10 -10 -10 -5 0 -10 5 -10 10 0 6 5 10 10 10 6 0 10 -4
10 -10z m430 -31 c0 -5 -4 -9 -10 -9 -5 0 -10 7 -10 16 0 8 5 12 10 9 6 -3 10
-10 10 -16z m57 -1 c-3 -8 -6 -5 -6 6 -1 11 2 17 5 13 3 -3 4 -12 1 -19z
m-526 -75 c-8 -15 -10 -15 -11 -2 0 17 10 32 18 25 2 -3 -1 -13 -7 -23z m477
13 c-7 -8 -15 -12 -17 -11 -5 6 10 25 20 25 5 0 4 -6 -3 -14z m68 -43 c-10
-10 -19 5 -10 18 6 11 8 11 12 0 2 -7 1 -15 -2 -18z m-546 -3 c0 -5 -7 -10
-16 -10 -8 0 -12 5 -9 10 3 6 10 10 16 10 5 0 9 -4 9 -10z m500 -24 c0 -20
-19 -31 -32 -18 -6 6 -7 15 -4 21 10 16 36 13 36 -3z m70 -16 c0 -5 -4 -10
-10 -10 -5 0 -10 5 -10 10 0 6 5 10 10 10 6 0 10 -4 10 -10z m-510 -14 c0 -3
-4 -8 -10 -11 -5 -3 -10 -1 -10 4 0 6 5 11 10 11 6 0 10 -2 10 -4z m450 -28
c0 -4 -7 -8 -15 -8 -8 0 -15 4 -15 8 0 5 7 9 15 9 8 0 15 -4 15 -9z m-500 -18
c0 -5 -4 -10 -10 -10 -5 0 -10 5 -10 10 0 6 5 10 10 10 6 0 10 -4 10 -10z
m575 -20 c0 -7 -6 -15 -12 -17 -8 -3 -13 4 -13 17 0 13 5 20 13 18 6 -3 12
-11 12 -18z m-621 1 c7 -10 -22 -37 -30 -28 -9 8 3 37 15 37 5 0 12 -4 15 -9z
m559 -37 c9 -10 -4 -34 -19 -34 -8 0 -14 6 -14 13 0 22 19 35 33 21z m77 -24
c0 -5 -4 -10 -10 -10 -5 0 -10 5 -10 10 0 6 5 10 10 10 6 0 10 -4 10 -10z
m-580 -10 c0 -5 -5 -10 -11 -10 -5 0 -7 5 -4 10 3 6 8 10 11 10 2 0 4 -4 4
-10z m403 -57 c-7 -2 -19 -2 -25 0 -7 3 -2 5 12 5 14 0 19 -2 13 -5z m201 -14
c-3 -5 -10 -7 -15 -3 -5 3 -7 10 -3 15 3 5 10 7 15 3 5 -3 7 -10 3 -15z m-435
5 c24 -5 31 -12 31 -30 0 -21 -5 -24 -39 -24 -45 0 -53 7 -44 38 6 24 7 25 52
16z m136 -14 c3 -6 3 -19 0 -30 -5 -17 -14 -20 -46 -18 -36 2 -39 4 -39 30 0
26 3 28 39 28 22 0 43 -5 46 -10z m92 0 c25 0 11 -44 -17 -50 -42 -11 -60 -1
-60 32 0 29 2 30 31 24 17 -3 38 -6 46 -6z m-301 -61 c1 -24 0 -31 -3 -16 -3
20 -9 27 -19 23 -14 -6 -20 24 -7 38 16 15 28 -3 29 -45z m-699 -116 c0 -76
-2 -92 -4 -45 -3 59 -7 72 -21 73 -16 1 -16 2 0 6 10 3 15 10 11 19 -5 13 -7
13 -14 2 -6 -8 -9 5 -9 35 0 44 2 47 19 38 17 -9 19 -23 18 -128z m453 53 c0
-11 -19 -15 -25 -6 -3 5 1 10 9 10 9 0 16 -2 16 -4z m50 -6 c0 -5 -4 -10 -9
-10 -6 0 -13 5 -16 10 -3 6 1 10 9 10 9 0 16 -4 16 -10z m57 -6 c-3 -3 -12 -4
-19 -1 -8 3 -5 6 6 6 11 1 17 -2 13 -5z m155 -66 c2 -21 0 -38 -4 -38 -4 0 -7
24 -7 53 1 54 5 49 11 -15z m-572 42 c0 -5 -7 -10 -16 -10 -8 0 -12 5 -9 10 3
6 10 10 16 10 5 0 9 -4 9 -10z m270 -15 c0 -14 -4 -25 -10 -25 -5 0 -10 11
-10 25 0 14 5 25 10 25 6 0 10 -11 10 -25z m209 8 c0 -11 -3 -13 -6 -5 -2 6
-9 10 -14 6 -5 -3 -9 0 -9 5 0 6 7 11 15 11 8 0 15 -8 14 -17z m-159 -19 c0
-8 -4 -14 -10 -14 -5 0 -10 9 -10 21 0 11 5 17 10 14 6 -3 10 -13 10 -21z m60
-6 c0 -5 -4 -8 -10 -8 -5 0 -10 10 -10 23 0 18 2 19 10 7 5 -8 10 -18 10 -22z
m-58 -43 c0 -5 -5 -11 -11 -13 -6 -2 -11 4 -11 13 0 9 5 15 11 13 6 -2 11 -8
11 -13z m58 0 c0 -8 -4 -15 -10 -15 -5 0 -10 7 -10 15 0 8 5 15 10 15 6 0 10
-7 10 -15z m50 11 c0 -3 -4 -8 -10 -11 -5 -3 -10 -1 -10 4 0 6 5 11 10 11 6 0
10 -2 10 -4z m340 -5 c0 -6 -4 -12 -8 -15 -5 -3 -9 1 -9 9 0 8 4 15 9 15 4 0
8 -4 8 -9z m35 -1 c-3 -5 1 -10 9 -10 9 0 16 -4 16 -10 0 -11 -11 -13 -34 -4
-13 5 -14 9 -5 20 13 16 23 19 14 4z m-165 -10 c12 -8 11 -10 -7 -10 -12 0
-25 5 -28 10 -8 13 15 13 35 0z m-143 -32 c-3 -8 -6 -5 -6 6 -1 11 2 17 5 13
3 -3 4 -12 1 -19z m127 -38 c78 0 198 -45 251 -94 15 -14 30 -26 33 -28 4 -2
19 -18 35 -36 31 -38 37 -63 10 -41 -34 27 -64 40 -76 32 -7 -4 -19 -8 -27
-10 -8 -1 -19 -8 -25 -16 -10 -14 -46 -19 -55 -8 -10 12 -50 31 -64 31 -8 0
-16 -8 -18 -17 -3 -15 -9 -13 -36 14 -18 17 -32 27 -32 22 0 -5 -4 -9 -10 -9
-5 0 -10 11 -10 23 0 13 -3 27 -7 31 -5 4 -9 22 -10 39 -2 18 -4 52 -6 77 -3
25 -2 33 0 18 4 -26 8 -28 47 -28z m386 50 c0 -5 -5 -10 -11 -10 -5 0 -7 5 -4
10 3 6 8 10 11 10 2 0 4 -4 4 -10z m-536 -16 c3 -8 2 -12 -4 -9 -6 3 -10 10
-10 16 0 14 7 11 14 -7z m-645 -45 c-6 -12 -9 -30 -6 -40 3 -10 1 -19 -4 -19
-5 0 -9 -7 -9 -15 0 -13 -38 -41 -45 -33 -6 7 55 128 65 128 7 0 7 -7 -1 -21z
m234 -92 c18 3 35 11 39 17 12 17 9 -33 -2 -55 -15 -27 -64 -26 -77 3 -11 25
-53 33 -53 9 0 -14 -2 -14 -9 -1 -6 8 -7 18 -4 24 3 5 1 6 -5 2 -6 -3 -14 -2
-17 4 -4 6 7 15 24 21 17 6 31 16 31 22 0 7 10 -2 21 -20 18 -28 24 -31 52
-26z m424 21 c-3 -8 -6 -5 -6 6 -1 11 2 17 5 13 3 -3 4 -12 1 -19z m713 -50
c0 -6 -6 -5 -15 2 -8 7 -15 14 -15 16 0 2 7 1 15 -2 8 -4 15 -11 15 -16z
m-1180 -24 c0 -8 -4 -12 -10 -9 -5 3 -10 10 -10 16 0 5 5 9 10 9 6 0 10 -7 10
-16z m-300 -7 c0 -2 -9 -14 -20 -27 -19 -22 -20 -22 -20 -3 0 11 3 23 7 26 7
7 33 10 33 4z m135 -106 c-3 -6 -13 -11 -21 -11 -12 0 -12 -5 0 -35 l15 -36
-22 16 c-12 8 -29 15 -39 15 -41 0 -5 46 47 61 24 7 29 4 20 -10z m113 -2 l67
-2 -70 -7 c-73 -8 -95 -5 -95 12 0 6 7 7 16 4 9 -3 46 -7 82 -7z m187 1 c4 -6
-9 -10 -32 -9 -38 1 -38 1 -8 9 17 4 31 8 32 9 1 0 5 -3 8 -9z m300 0 c63 0
86 -3 75 -10 -15 -10 -173 -12 -197 -3 -23 9 -14 26 10 19 12 -3 63 -6 112 -6z
m-382 -7 c-7 -2 -19 -2 -25 0 -7 3 -2 5 12 5 14 0 19 -2 13 -5z m215 0 c-15
-2 -42 -2 -60 0 -18 2 -6 4 27 4 33 0 48 -2 33 -4z m-216 -191 c-16 -5 -119
35 -149 58 -21 16 -21 19 -6 22 21 4 173 -74 155 -80z m236 20 c-15 -9 -46
-41 -68 -70 -41 -53 -68 -66 -36 -18 9 14 16 31 16 38 0 10 -2 10 -8 1 -12
-18 -64 -35 -75 -24 -6 6 2 15 20 25 16 8 51 26 78 40 26 14 60 26 74 26 l26
0 -27 -18z m102 8 c18 -12 2 -12 -25 0 -13 6 -15 9 -5 9 8 0 22 -4 30 -9z
m259 -32 c-26 -53 -25 -51 -38 -43 -7 4 1 21 21 45 18 22 34 40 36 40 1 0 -7
-19 -19 -42z m-144 6 l30 -26 -32 16 c-17 9 -35 20 -38 26 -11 18 9 10 40 -16z
m104 -11 c3 -2 0 -8 -7 -15 -8 -8 -19 -5 -44 10 l-33 21 40 -6 c22 -3 42 -8
44 -10z m-133 -25 l29 -33 -32 29 c-31 28 -38 36 -30 36 2 0 16 -15 33 -32z
m304 28 c0 -3 -4 -8 -10 -11 -5 -3 -10 -1 -10 4 0 6 5 11 10 11 6 0 10 -2 10
-4z m451 -8 c0 -7 2 -34 4 -60 4 -53 3 -55 -19 -33 -10 11 -21 13 -38 6 -30
-11 -61 16 -35 31 18 10 23 48 7 48 -5 0 -10 5 -10 10 0 15 90 13 91 -2z m134
-8 c44 0 85 -19 85 -39 0 -32 -17 -44 -54 -39 -20 2 -36 1 -36 -3 0 -4 -22 -6
-50 -6 l-50 1 0 34 c0 29 2 32 14 23 12 -10 19 -8 33 6 11 11 18 25 17 31 -1
7 0 8 3 2 2 -5 20 -10 38 -10z m-1875 -15 c0 -16 -20 -19 -60 -8 l-25 7 30 7
c48 11 55 10 55 -6z m1415 5 c3 -5 -1 -10 -9 -10 -9 0 -16 5 -16 10 0 6 4 10
9 10 6 0 13 -4 16 -10z m-143 -32 c-9 -9 -12 -9 -12 1 0 8 -6 11 -15 7 -8 -3
-15 -1 -15 4 0 12 33 18 45 8 5 -5 4 -13 -3 -20z m188 -8 c0 -5 -4 -10 -10
-10 -5 0 -10 5 -10 10 0 6 5 10 10 10 6 0 10 -4 10 -10z m677 4 c-3 -3 -12 -4
-19 -1 -8 3 -5 6 6 6 11 1 17 -2 13 -5z m-937 -19 c7 -8 10 -15 6 -15 -3 0 -8
0 -11 0 -3 0 -5 3 -4 6 0 4 -5 11 -13 15 -8 5 -9 9 -2 9 6 0 17 -7 24 -15z
m-130 -48 c0 -12 0 -11 -24 28 l-17 30 20 -24 c12 -13 21 -28 21 -34z m426
-24 c-9 -10 -36 12 -36 30 0 19 1 19 20 -3 11 -13 18 -25 16 -27z m-222 16
c-3 -5 -10 -7 -15 -3 -5 3 -7 10 -3 15 3 5 10 7 15 3 5 -3 7 -10 3 -15z m264
-21 c19 -19 14 -30 -8 -18 -11 6 -20 15 -20 20 0 14 14 12 28 -2z m-464 -70
c5 -21 3 -28 -9 -28 -15 0 -22 40 -8 53 8 9 9 8 17 -25z m711 -40 c6 -4 2 -8
-7 -8 -10 0 -18 7 -18 17 0 9 3 12 8 7 4 -5 12 -12 17 -16z m-768 -35 c-3 -10
-5 -2 -5 17 0 19 2 27 5 18 2 -10 2 -26 0 -35z m1203 6 c0 -5 -13 -9 -30 -9
-35 0 -41 17 -7 22 26 5 37 1 37 -13z m-1235 1 c-3 -6 -17 -10 -31 -10 -33 0
-24 15 11 18 15 1 24 -2 20 -8z m100 -79 c3 -25 8 -61 11 -78 3 -20 1 -33 -6
-33 -5 0 -10 9 -10 21 0 12 -8 23 -20 26 -15 4 -20 14 -20 37 0 82 35 103 45
27z m-710 -131 c3 -5 1 -10 -4 -10 -6 0 -11 5 -11 10 0 6 2 10 4 10 3 0 8 -4
11 -10z m715 -20 c0 -5 -4 -10 -10 -10 -5 0 -10 5 -10 10 0 6 5 10 10 10 6 0
10 -4 10 -10z m9 -59 c6 -23 9 -58 5 -82 l-7 -42 -18 34 c-20 39 -34 103 -24
119 13 21 32 9 44 -29z m-552 -76 c-4 -8 -11 -15 -17 -15 -6 0 -6 7 2 20 14
22 24 19 15 -5z m-255 -185 c-2 -22 -7 -42 -11 -44 -8 -5 -12 65 -4 76 11 19
18 5 15 -32z"/>
<path d="M1940 2870 c-1 -3 -3 -21 -6 -39 -2 -19 -8 -37 -13 -40 -12 -9 7 -53
21 -49 14 5 19 70 8 107 -5 14 -9 24 -10 21z"/>
<path d="M1650 2825 c0 -17 5 -25 18 -25 12 0 14 2 4 8 -7 5 -10 16 -6 25 3
10 1 17 -5 17 -6 0 -11 -11 -11 -25z"/>
<path d="M1642 2770 c0 -14 2 -19 5 -12 2 6 2 18 0 25 -3 6 -5 1 -5 -13z"/>
<path d="M1630 2705 c0 -11 -3 -38 -5 -60 -5 -37 -4 -37 9 10 9 31 11 54 5 60
-6 5 -9 2 -9 -10z"/>
<path d="M1945 2692 c-6 -4 -10 -16 -9 -27 0 -11 -3 -28 -8 -37 -5 -11 -5 -18
2 -18 5 0 10 5 10 12 0 6 6 4 13 -6 11 -15 13 -11 12 28 0 48 -5 59 -20 48z"/>
<path d="M1940 2585 c0 -8 4 -15 10 -15 5 0 7 7 4 15 -4 8 -8 15 -10 15 -2 0
-4 -7 -4 -15z"/>
<path d="M1148 1593 c7 -3 16 -2 19 1 4 3 -2 6 -13 5 -11 0 -14 -3 -6 -6z"/>
<path d="M1195 1480 c-3 -5 -1 -10 4 -10 6 0 11 5 11 10 0 6 -2 10 -4 10 -3 0
-8 -4 -11 -10z"/>
<path d="M514 1395 c-8 -21 -4 -25 41 -32 33 -5 37 -4 33 13 -2 11 -12 19 -23
19 -11 1 -26 4 -33 9 -7 4 -15 1 -18 -9z"/>
<path d="M140 1360 c23 -23 31 -25 28 -7 -4 15 -19 27 -35 27 -8 0 -5 -8 7
-20z"/>
<path d="M2658 1313 c6 -2 18 -2 25 0 6 3 1 5 -13 5 -14 0 -19 -2 -12 -5z"/>
<path d="M2560 1231 c0 -10 40 -22 52 -15 18 11 6 24 -22 24 -16 0 -30 -4 -30
-9z"/>
<path d="M2725 1230 c-10 -17 14 -38 36 -33 22 6 16 18 -9 18 -9 0 -16 6 -14
13 3 15 -4 16 -13 2z"/>
<path d="M2797 1219 c7 -7 15 -10 18 -7 3 3 -2 9 -12 12 -14 6 -15 5 -6 -5z"/>
<path d="M740 991 c0 -7 -4 -9 -10 -6 -6 4 -10 -7 -9 -27 l1 -33 14 34 c8 18
13 36 10 39 -4 3 -6 0 -6 -7z"/>
<path d="M690 951 c0 -5 -2 -16 -5 -24 -4 -8 0 -14 10 -14 17 0 21 32 5 42 -5
3 -10 2 -10 -4z"/>
<path d="M649 835 c-1 -3 -2 -9 -3 -14 0 -5 -4 -13 -8 -17 -5 -4 -8 -12 -8
-18 0 -17 20 8 25 32 3 18 -2 33 -6 17z"/>
<path d="M2540 730 c0 -5 4 -10 8 -10 5 0 14 -12 21 -26 11 -25 11 -26 -14
-20 -16 4 -25 2 -25 -5 0 -8 -4 -8 -15 1 -13 11 -15 8 -15 -19 0 -37 37 -66
75 -59 13 3 26 0 28 -5 2 -6 13 -1 24 10 17 17 19 23 7 27 -8 3 -14 12 -14 21
0 8 -6 14 -12 13 -7 -2 -13 6 -14 17 -2 40 -4 45 -19 45 -8 0 -15 5 -15 10 0
6 -4 10 -10 10 -5 0 -10 -4 -10 -10z m49 -104 c9 -10 8 -15 -4 -20 -21 -7 -45
3 -45 20 0 18 34 18 49 0z"/>
<path d="M618 716 c10 -19 52 -31 52 -14 0 4 -8 8 -18 8 -10 0 -24 6 -31 13
-11 10 -12 9 -3 -7z"/>
<path d="M1902 660 c0 -14 2 -19 5 -12 2 6 2 18 0 25 -3 6 -5 1 -5 -13z"/>
<path d="M2154 621 c7 -10 -17 -21 -45 -21 -11 0 -17 -4 -14 -10 9 -14 83 -12
87 2 3 7 -1 18 -8 25 -14 15 -28 17 -20 4z"/>
<path d="M2820 619 c0 -5 5 -7 11 -3 8 5 10 -1 7 -20 -4 -22 -2 -26 18 -26 22
0 22 1 8 30 -15 29 -44 42 -44 19z"/>
<path d="M2315 550 c3 -5 11 -10 16 -10 6 0 7 5 4 10 -3 6 -11 10 -16 10 -6 0
-7 -4 -4 -10z"/>
<path d="M1747 53 c-5 -45 -3 -62 7 -52 8 8 14 99 6 99 -4 0 -10 -21 -13 -47z"/>
</g>
</svg>
